Coordinates
version=1
nRows=7
nColumns=63
inDegrees=yes

Units are S.I. units (second, meters, Newtons, ...)
If the header above contains a line with 'inDegrees', this indicates whether rotational values are in degrees (yes) or radians (no).

endheader
time	pelvis_tilt	pelvis_list	pelvis_rotation	pelvis_tx	pelvis_ty	pelvis_tz	hip_flexion_r	hip_adduction_r	hip_rotation_r	knee_angle_r	knee_angle_r_beta	ankle_angle_r	subtalar_angle_r	mtp_angle_r	hip_flexion_l	hip_adduction_l	hip_rotation_l	knee_angle_l	knee_angle_l_beta	ankle_angle_l	subtalar_angle_l	mtp_angle_l	L5_S1_Flex_Ext	L5_S1_Lat_Bending	L5_S1_axial_rotation	L4_L5_Flex_Ext	L4_L5_Lat_Bending	L4_L5_axial_rotation	L3_L4_Flex_Ext	L3_L4_Lat_Bending	L3_L4_axial_rotation	L2_L3_Flex_Ext	L2_L3_Lat_Bending	L2_L3_axial_rotation	L1_L2_Flex_Ext	L1_L2_Lat_Bending	L1_L2_axial_rotation	L1_T12_Flex_Ext	L1_T12_Lat_Bending	L1_T12_axial_rotation	Abs_r3	Abs_r2	Abs_r1	Abs_t1	Abs_t2	neck_flexion	neck_bending	neck_rotation	arm_flex_r	arm_add_r	arm_rot_r	elbow_flex_r	pro_sup_r	wrist_flex_r	wrist_dev_r	arm_flex_l	arm_add_l	arm_rot_l	elbow_flex_l	pro_sup_l	wrist_flex_l	wrist_dev_l
      0.96666667	     -3.19621173	     -5.95308258	     87.68437313	      0.18363481	      1.06136243	      0.11130746	      3.04449918	     -3.73050391	     -5.32160485	      6.63405437	      0.11578609	     35.00290263	     16.30998304	      0.00000000	      3.11003082	      5.40526927	      9.06263280	      3.02834141	      0.05285453	     28.28295151	    -16.45845815	      0.00000000	      0.11687076	     -0.18943395	      0.48369456	      0.21704069	     -0.25194716	      0.51392547	      0.19200698	     -0.46058971	      0.51392547	      0.13357160	     -0.46058971	      0.42323274	      0.10852619	     -0.38629371	      0.39300183	      0.06677995	     -0.29343319	      0.36277092	      0.83479618	     -2.14291474	      2.69016405	      0.00000000	      0.00000000	     26.96709459	     -0.33194082	      4.17186389	     21.36844487	     -5.68962622	     86.69720063	     37.36980064	     79.73566542	      3.98704706	      0.55933372	     19.77645088	     -9.70729932	     73.98285334	     43.57478709	     65.45529253	      9.53131260	     17.45502164
      0.98333333	     -3.23834677	     -5.91783068	     87.68097603	      0.18438214	      1.06136279	      0.10985027	      2.83030777	     -3.72718072	     -5.13135184	      6.55653524	      0.11443313	     34.90483591	     16.04301448	      0.00000000	      2.88212411	      5.38951355	      9.63276974	      2.75103529	      0.04801462	     28.56405212	    -16.57638985	      0.00000000	      0.13167008	     -0.23187102	      0.56693233	      0.24452451	     -0.30838846	      0.60236560	      0.21632078	     -0.56377120	      0.60236560	      0.15048574	     -0.56377120	      0.49606579	      0.12226884	     -0.47283139	      0.46063252	      0.07523628	     -0.35916821	      0.42519925	      0.94050622	     -2.62297137	      3.15310754	      0.00000000	      0.00000000	     26.92478652	      1.14423741	      6.17156534	     20.69754105	     -5.91345188	     88.25583635	     37.97509755	     46.70116455	      4.83257060	      6.06194551	     19.93199829	     -9.72992740	     74.21197787	     43.61052354	     64.34708219	     10.05107145	     18.39864172
      1.00000000	     -3.27764557	     -5.80829765	     87.80277572	      0.18497825	      1.06157093	      0.10845062	      2.50248115	     -3.72198495	     -5.21219642	      6.39041335	      0.11153375	     34.80907008	     15.99479773	      0.00000000	      2.56932482	      5.37460282	     10.16446219	      2.47121143	      0.04313078	     28.86672244	    -16.56929142	      0.00000000	      0.11387354	     -0.27731718	      0.62901375	      0.21147455	     -0.36883185	      0.66832711	      0.18708284	     -0.67426899	      0.66832711	      0.13014607	     -0.67426899	      0.55038703	      0.10574297	     -0.56550519	      0.51107367	      0.06506734	     -0.42956431	      0.47176032	      0.81338730	     -3.13706741	      3.49838579	      0.00000000	      0.00000000	     26.99469248	      2.59979085	      8.33164121	     20.05117638	     -5.93847122	     86.84238066	     38.10981814	     45.85007822	      4.56253842	      5.78757901	     20.13199953	     -9.75668003	     74.25678193	     43.71108311	     64.40169571	     10.59526986	     19.45016857
      1.01666667	     -3.22728921	     -5.84710992	     87.87917280	      0.18532434	      1.06156594	      0.10709645	      2.40107519	     -3.62765773	     -5.23075583	      6.29066866	      0.10979288	     34.82294806	     16.00286696	      0.00000000	      2.46383832	      5.27672888	     10.62050089	      2.33278702	      0.04071481	     29.45362316	    -16.55744210	      0.00000000	      0.11438391	     -0.30855984	      0.68923140	      0.21242236	     -0.41038458	      0.73230836	      0.18792133	     -0.75023238	      0.73230836	      0.13072937	     -0.75023238	      0.60307747	      0.10621690	     -0.62921522	      0.56000051	      0.06535897	     -0.47795918	      0.51692355	      0.81703285	     -3.49049057	      3.83329826	      0.00000000	      0.00000000	     27.17259571	      2.81136583	      9.43769564	     19.82257490	     -5.92095424	     86.40835513	     38.18431361	     45.51953154	      4.49725996	      5.89121733	     20.15636132	     -9.76110369	     74.20700076	     43.81952357	     64.41176308	     10.84067672	     19.86442433
      1.03333333	     -3.03960801	     -5.87827829	     88.16774039	      0.18548524	      1.06157813	      0.10600163	      2.22373609	     -3.36431960	     -5.27839095	      6.04208925	      0.10545435	     34.88002442	     15.95462571	      0.00000000	      2.36801709	      5.05651930	     11.02670219	      2.22492988	      0.03883235	     29.43156683	    -16.97427707	      0.00000000	      0.09295541	     -0.30605883	      0.60062467	      0.17262749	     -0.40705824	      0.63816371	      0.15271644	     -0.74415143	      0.63816371	      0.10623874	     -0.74415143	      0.52554658	      0.08631839	     -0.62411516	      0.48800754	      0.05311472	     -0.47408512	      0.45046850	      0.66397119	     -3.46219865	      3.34049422	      0.00000000	      0.00000000	     27.21928938	      4.25264946	     13.93508298	     19.37387214	     -6.09579958	     85.65378172	     39.24310585	     33.37300621	      3.46504838	      9.01474869	     19.23992108	     -9.71064054	     70.76690003	     44.06357611	     67.99548020	     13.16627675	     22.11881162
      1.05000000	     -2.83842085	     -5.82369746	     88.40725915	      0.18574195	      1.06156648	      0.10504425	      2.00041628	     -3.09405497	     -5.28030004	      5.81179770	      0.10143501	     35.02307390	     15.98816118	      0.00000000	      2.22579237	      4.81838707	     11.17847890	      2.24941297	      0.03925966	     29.67465421	    -17.03980095	      0.00000000	      0.06977459	     -0.30988061	      0.59681965	      0.12957838	     -0.41214122	      0.63412088	      0.11463267	     -0.75344372	      0.63412088	      0.07974537	     -0.75344372	      0.52221719	      0.06479268	     -0.63190855	      0.48491596	      0.03986920	     -0.48000507	      0.44761474	      0.49839289	     -3.50543147	      3.31933184	      0.00000000	      0.00000000	     27.28996179	      3.72646088	     15.46795234	     19.24404248	     -6.21271479	     85.24784769	     39.51555811	     33.01544562	      3.30272763	      8.70377681	     19.41398532	     -9.80072590	     70.98206595	     44.35616895	     68.16206640	     13.63102543	     22.77887902
      1.06666667	     -2.56229759	     -5.82913811	     88.88610174	      0.18538926	      1.06142647	      0.10447892	      1.82541092	     -2.75639120	     -5.43315955	      5.55689647	      0.09698614	     35.10626653	     15.82202899	      0.00000000	      2.19439044	      4.53420176	     11.43923282	      2.31767013	      0.04045097	     29.66028576	    -17.17660741	      0.00000000	      0.05202568	     -0.29619408	      0.47946197	      0.09661688	     -0.39393812	      0.50942834	      0.08547298	     -0.72016627	      0.50942834	      0.05946015	     -0.72016627	      0.41952922	      0.04831104	     -0.60399896	      0.38956285	      0.02972747	     -0.45880462	      0.35959648	      0.37161421	     -3.35060662	      2.66662363	      0.00000000	      0.00000000	     27.21069561	      3.86158496	     17.81465375	     19.52681417	     -6.44952330	     86.39401939	     40.44549861	     24.38769560	      2.06624688	      9.14862932	     18.51012975	     -9.57183595	     67.67033302	     44.37708675	     72.39596043	     16.16436869	     24.10094514
